<?xml version="1.0" encoding="UTF-8" standalone="no"?>
<!-- Created with Inkscape (http://www.inkscape.org/) -->

<svg
   xmlns:dc="http://purl.org/dc/elements/1.1/"
   xmlns:cc="http://creativecommons.org/ns#"
   xmlns:rdf="http://www.w3.org/1999/02/22-rdf-syntax-ns#"
   xmlns:svg="http://www.w3.org/2000/svg"
   xmlns="http://www.w3.org/2000/svg"
   xmlns:xlink="http://www.w3.org/1999/xlink"
   xmlns:sodipodi="http://sodipodi.sourceforge.net/DTD/sodipodi-0.dtd"
   xmlns:inkscape="http://www.inkscape.org/namespaces/inkscape"
   width="308.02216"
   height="227.02142"
   id="svg3298"
   version="1.1"
   inkscape:version="0.48.5 r10040"
   sodipodi:docname="logo.svg"
   inkscape:export-filename="C:\rad\github\smallEditor-gh-pages\web\images\logo.png"
   inkscape:export-xdpi="23.66713"
   inkscape:export-ydpi="23.66713">
  <defs
     id="defs3300">
    <linearGradient
       inkscape:collect="always"
       xlink:href="#linearGradient2977"
       id="linearGradient3844"
       gradientUnits="userSpaceOnUse"
       x1="-1683"
       y1="-199.52618"
       x2="-1729.786"
       y2="-166.13782" />
    <linearGradient
       inkscape:collect="always"
       id="linearGradient2977">
      <stop
         style="stop-color:#37a42c;stop-opacity:1"
         offset="0"
         id="stop2979" />
      <stop
         style="stop-color:#00892c;stop-opacity:1"
         offset="1"
         id="stop2981" />
    </linearGradient>
    <linearGradient
       inkscape:collect="always"
       xlink:href="#linearGradient2985"
       id="linearGradient3846"
       gradientUnits="userSpaceOnUse"
       x1="-1772.5"
       y1="-113.63782"
       x2="-1712.5"
       y2="-145.13782" />
    <linearGradient
       inkscape:collect="always"
       id="linearGradient2985">
      <stop
         style="stop-color:#00892c;stop-opacity:1"
         offset="0"
         id="stop2987" />
      <stop
         style="stop-color:#006e29;stop-opacity:1"
         offset="1"
         id="stop2989" />
    </linearGradient>
    <linearGradient
       inkscape:collect="always"
       xlink:href="#linearGradient2977"
       id="linearGradient3852"
       gradientUnits="userSpaceOnUse"
       gradientTransform="matrix(-0.89635948,0,0,0.89635948,-2433.9061,-702.2182)"
       x1="-1099.5072"
       y1="55.90192"
       x2="-1004.8273"
       y2="2.3519762" />
    <linearGradient
       inkscape:collect="always"
       xlink:href="#linearGradient2985"
       id="linearGradient3854"
       gradientUnits="userSpaceOnUse"
       gradientTransform="matrix(-0.89635948,0,0,0.89635948,-2433.9061,-393.9505)"
       x1="-1082.3668"
       y1="28.699799"
       x2="-1148.1886"
       y2="85.596619" />
    <linearGradient
       inkscape:collect="always"
       xlink:href="#linearGradient2977"
       id="linearGradient3779"
       x1="-1316.9387"
       y1="87.497284"
       x2="-1250.2734"
       y2="56.605263"
       gradientUnits="userSpaceOnUse" />
    <linearGradient
       inkscape:collect="always"
       xlink:href="#linearGradient2985"
       id="linearGradient3795"
       x1="-1360.1708"
       y1="124.88399"
       x2="-1310.9418"
       y2="97.335373"
       gradientUnits="userSpaceOnUse" />
    <linearGradient
       y2="97.335373"
       x2="-1310.9418"
       y1="124.88399"
       x1="-1360.1708"
       gradientUnits="userSpaceOnUse"
       id="linearGradient3296"
       xlink:href="#linearGradient2985"
       inkscape:collect="always" />
    <linearGradient
       inkscape:collect="always"
       xlink:href="#linearGradient2977-7"
       id="linearGradient3844-1"
       gradientUnits="userSpaceOnUse"
       x1="-1683"
       y1="-199.52618"
       x2="-1729.786"
       y2="-166.13782" />
    <linearGradient
       inkscape:collect="always"
       id="linearGradient2977-7">
      <stop
         style="stop-color:#37a42c;stop-opacity:1"
         offset="0"
         id="stop2979-4" />
      <stop
         style="stop-color:#00892c;stop-opacity:1"
         offset="1"
         id="stop2981-0" />
    </linearGradient>
    <linearGradient
       inkscape:collect="always"
       xlink:href="#linearGradient2985-4"
       id="linearGradient3846-9"
       gradientUnits="userSpaceOnUse"
       x1="-1772.5"
       y1="-113.63782"
       x2="-1712.5"
       y2="-145.13782" />
    <linearGradient
       inkscape:collect="always"
       id="linearGradient2985-4">
      <stop
         style="stop-color:#00892c;stop-opacity:1"
         offset="0"
         id="stop2987-8" />
      <stop
         style="stop-color:#006e29;stop-opacity:1"
         offset="1"
         id="stop2989-8" />
    </linearGradient>
    <linearGradient
       y2="-145.13782"
       x2="-1712.5"
       y1="-113.63782"
       x1="-1772.5"
       gradientUnits="userSpaceOnUse"
       id="linearGradient3400"
       xlink:href="#linearGradient2985-4"
       inkscape:collect="always" />
    <linearGradient
       inkscape:collect="always"
       xlink:href="#linearGradient2977-1"
       id="linearGradient3844-5"
       gradientUnits="userSpaceOnUse"
       x1="-1683"
       y1="-199.52618"
       x2="-1729.786"
       y2="-166.13782" />
    <linearGradient
       inkscape:collect="always"
       id="linearGradient2977-1">
      <stop
         style="stop-color:#37a42c;stop-opacity:1"
         offset="0"
         id="stop2979-7" />
      <stop
         style="stop-color:#00892c;stop-opacity:1"
         offset="1"
         id="stop2981-1" />
    </linearGradient>
    <linearGradient
       inkscape:collect="always"
       xlink:href="#linearGradient2985-5"
       id="linearGradient3846-1"
       gradientUnits="userSpaceOnUse"
       x1="-1772.5"
       y1="-113.63782"
       x2="-1712.5"
       y2="-145.13782" />
    <linearGradient
       inkscape:collect="always"
       id="linearGradient2985-5">
      <stop
         style="stop-color:#00892c;stop-opacity:1"
         offset="0"
         id="stop2987-2" />
      <stop
         style="stop-color:#006e29;stop-opacity:1"
         offset="1"
         id="stop2989-7" />
    </linearGradient>
    <linearGradient
       inkscape:collect="always"
       xlink:href="#linearGradient2977-7-1"
       id="linearGradient3844-1-6"
       gradientUnits="userSpaceOnUse"
       x1="-1683"
       y1="-199.52618"
       x2="-1729.786"
       y2="-166.13782" />
    <linearGradient
       inkscape:collect="always"
       id="linearGradient2977-7-1">
      <stop
         style="stop-color:#37a42c;stop-opacity:1"
         offset="0"
         id="stop2979-4-4" />
      <stop
         style="stop-color:#00892c;stop-opacity:1"
         offset="1"
         id="stop2981-0-2" />
    </linearGradient>
    <linearGradient
       y2="-145.13782"
       x2="-1712.5"
       y1="-113.63782"
       x1="-1772.5"
       gradientUnits="userSpaceOnUse"
       id="linearGradient3400-3"
       xlink:href="#linearGradient2985-4-2"
       inkscape:collect="always" />
    <linearGradient
       inkscape:collect="always"
       id="linearGradient2985-4-2">
      <stop
         style="stop-color:#00892c;stop-opacity:1"
         offset="0"
         id="stop2987-8-2" />
      <stop
         style="stop-color:#006e29;stop-opacity:1"
         offset="1"
         id="stop2989-8-1" />
    </linearGradient>
    <linearGradient
       y2="-145.13782"
       x2="-1712.5"
       y1="-113.63782"
       x1="-1772.5"
       gradientUnits="userSpaceOnUse"
       id="linearGradient3463"
       xlink:href="#linearGradient2985-5"
       inkscape:collect="always" />
  </defs>
  <sodipodi:namedview
     id="base"
     pagecolor="#ffffff"
     bordercolor="#666666"
     borderopacity="1.0"
     inkscape:pageopacity="0.0"
     inkscape:pageshadow="2"
     inkscape:zoom="1.979899"
     inkscape:cx="121.2324"
     inkscape:cy="171.14995"
     inkscape:document-units="px"
     inkscape:current-layer="layer1"
     showgrid="false"
     fit-margin-top="0"
     fit-margin-left="0"
     fit-margin-right="0"
     fit-margin-bottom="0"
     inkscape:window-width="1680"
     inkscape:window-height="998"
     inkscape:window-x="-8"
     inkscape:window-y="-8"
     inkscape:window-maximized="1" />
  <metadata
     id="metadata3303">
    <rdf:RDF>
      <cc:Work
         rdf:about="">
        <dc:format>image/svg+xml</dc:format>
        <dc:type
           rdf:resource="http://purl.org/dc/dcmitype/StillImage" />
        <dc:title></dc:title>
      </cc:Work>
    </rdf:RDF>
  </metadata>
  <g
     inkscape:label="Layer 1"
     inkscape:groupmode="layer"
     id="layer1"
     transform="translate(-12.170315,-9.1691915)">
    <g
       id="g3529"
       transform="translate(89.622885,10.239848)">
      <path
         style="fill:#a9e44c"
         d="m -31.053786,219.20077 c -11.263439,-28.78385 -8.663746,-58.10338 7.309252,-82.43429 10.636713,-16.2024 25.777574,-26.07752 51.016125,-33.27355 18.22234,-5.195567 57.86028,-12.542157 67.67019,-12.542157 4.18197,0 5.263049,2.117963 7.911739,15.499997 4.92729,24.89434 0.18055,47.41204 -12.912869,61.2564 -11.34464,11.99529 -32.49723,23.31067 -69.409835,37.13015 -23.906966,8.95037 -30.983717,12.05479 -41.167043,18.0591 -2.849107,1.67989 -5.764298,3.05435 -6.478202,3.05435 -0.713904,0 -2.486615,-3.0375 -3.939357,-6.75 z M 186.10607,166.38424 c -25.59883,-4.63205 -55.21036,-24.42593 -70.72999,-47.2796 -5.52336,-8.13351 -11.14236,-20.017337 -11.80671,-24.970454 -0.63666,-4.746619 -1.02789,-4.604576 17.25005,-6.26302 31.77063,-2.8827 66.03575,3.564374 82.1785,15.462104 10.5145,7.74953 18.05171,20.68277 23.74846,40.75041 1.92386,6.77712 4.28435,21.08966 3.74504,22.70761 -0.56117,1.6835 -34.55489,1.37175 -44.38535,-0.40705 z M 34.271591,90.966904 C 14.463353,89.465463 3.975416,85.966497 -7.780319,76.937623 c -2.996449,-2.301393 -15.79809,-14.653932 -28.44809,-27.450086 -12.65,-12.796153 -27.014075,-26.589215 -31.920166,-30.651249 -4.906092,-4.062033 -9.087921,-7.893502 -9.292954,-8.514375 -0.403308,-1.221283 10.284252,-4.3911759 25.21312,-7.4781239 15.762838,-3.2593939 29.585767,-4.2139022 51.957847,-3.5878213 29.621623,0.8289587 43.999023,4.2758637 57.584593,13.8055942 13.09374,9.184735 24.40001,26.150446 33.24711,49.889211 5.4283,14.565334 7.15127,21.987746 5.48975,23.64927 -3.06245,3.062449 -42.35064,5.839529 -61.7793,4.366861 z m 69.257489,-5.675916 c -1.5787,-0.637684 -5.665489,-14.146957 -7.815669,-25.835408 -1.07628,-5.850699 -1.51945,-12.363429 -1.26774,-18.630427 0.33205,-8.267046 0.80866,-10.45969 3.35646,-15.441327 C 103.04174,15.13897 115.32215,8.7777 138.99815,4.0442181 c 12.10303,-2.4197272 22.38729,-3.4283126 23.97432,-2.3511796 1.63386,1.1089194 6.05547,18.7270875 7.46826,29.7577345 1.53787,12.007233 0.64728,17.049499 -4.32711,24.498696 -9.41481,14.0988 -28.77192,24.85463 -51.34203,28.528341 -9.69168,1.577504 -9.40214,1.556562 -11.24251,0.813178 z"
         id="path3543"
         inkscape:connector-curvature="0" />
      <path
         style="fill:#97df2d"
         d="m 31.134371,196.89314 c 1.84953,-1.12758 3.19953,-2.198 3,-2.37871 -0.19953,-0.18072 -7.90028,-2.46923 -17.11278,-5.08559 -11.625422,-3.30164 -16.75,-5.19388 -16.75,-6.18493 0,-0.99243 -0.636143,-1.22601 -2.085827,-0.7659 -1.891405,0.60031 -1.975373,0.45563 -0.900837,-1.55216 1.632258,-3.0499 12.493224,-19.18883 17.816857,-26.47508 3.555323,-4.86603 4.066799,-6.06367 2.706302,-6.33691 -2.124308,-0.42663 -13.536495,2.94838 -13.536495,4.00324 0,0.43331 -1.6875,0.73124 -3.75,0.66207 -2.0625,-0.0692 -4.65,0.15882 -5.75,0.50666 -4.208749,1.33087 -24.833481,5.7198 -25.607061,5.44917 -1.460594,-0.51098 3.827279,-13.66747 8.518248,-21.19382 6.493019,-10.41763 15.48727,-18.47414 26.817638,-24.02163 16.081274,-7.8736 42.644065,-14.662537 76.649725,-19.590205 7.4918,-1.085615 14.20691,-1.974909 14.92248,-1.976209 1.92651,-0.0035 3.87046,5.461661 5.714919,16.066794 4.57625,26.31199 -0.57469,47.27287 -14.912899,60.68556 -10.15158,9.49631 -28.8062,19.92831 -48.92127,27.35767 -9.19688,3.39681 -11.48634,3.67547 -6.819,0.82998 z M 188.84311,165.8425 c -26.09241,-3.80436 -58.25157,-24.88118 -73.19176,-47.96923 -5.36303,-8.28784 -11.34888,-21.255865 -11.36755,-24.627184 -0.0142,-2.555301 0.75835,-2.747847 17.47177,-4.354858 19.01235,-1.828053 45.4982,0.654276 60.41746,5.662495 16.95722,5.692337 26.15768,12.673517 33.99801,25.797197 5.1724,8.65793 10.87182,26.70268 13.84993,43.84985 l 0.47762,2.75 -17.8635,-0.12194 c -9.82493,-0.0671 -20.53132,-0.51092 -23.79198,-0.98633 z M 33.271591,89.956323 C 5.75219,87.534954 -4.910331,81.404378 -32.176532,52.325948 -47.442961,36.044847 -57.06414,26.849798 -69.087419,17.049877 c -5.514452,-4.494714 -7.449268,-6.617523 -6.497045,-7.12832 2.304604,-1.23625 22.828517,-5.8402748 33.356055,-7.4825937 5.5,-0.858012 12.437552,-1.9938597 15.416781,-2.5241061 14.356064,-2.5551067 47.839922,0.1059223 64.547979,5.1297566 21.6581,6.5122322 36.16663,21.4427292 48.29753,49.7022272 5.66213,13.190197 10.73462,30.107023 9.42133,31.420308 -2.60631,2.606318 -45.74894,5.235224 -62.18362,3.789174 z M 103.4816,83.703816 c -1.46283,-1.762601 -4.899469,-14.457106 -6.730519,-24.861709 -3.08667,-17.539364 -1.31998,-30.741494 5.058599,-37.80182 8.0308,-8.889127 26.92956,-15.2402733 55.16185,-18.537771 6.33097,-0.7394499 6.0788,-1.1112265 9.80017,14.448257 3.80476,15.90816 3.9974,28.547292 0.53832,35.318717 -6.78204,13.276347 -26.8449,26.156798 -47.02191,30.188285 -12.01043,2.399753 -15.62652,2.667852 -16.80651,1.246041 z"
         id="path3541"
         inkscape:connector-curvature="0" />
      <path
         style="fill:#69cc1b"
         d="m 76.771591,174.59589 c 3.3,-2.98694 5.775,-5.66221 5.5,-5.94503 -0.275,-0.28283 -11.75,-3.75407 -25.5,-7.71386 -13.75,-3.9598 -25.13913,-7.569 -25.30918,-8.02046 -0.17004,-0.45145 -1.84957,-0.57085 -3.73227,-0.26533 -2.59548,0.42119 -3.57487,0.16002 -4.05078,-1.08019 -0.78559,-2.04723 1.09818,-4.99482 9.74152,-15.24281 3.76789,-4.46741 6.85071,-8.42041 6.85071,-8.78445 0,-0.7803 -6.21387,-0.0955 -22,2.42461 -6.325,1.00971 -14.875,2.1261 -19,2.48086 -10.516123,0.90441 -11.291268,1.2049 -10.565692,4.09582 0.332088,1.32315 0.363912,2.40572 0.07072,2.40572 -1.08971,0 -7.480726,-4.5298 -7.492649,-5.31061 -0.0068,-0.44583 3.475121,-4.28154 7.737621,-8.52379 5.721859,-5.69467 9.712717,-8.66082 15.25,-11.33434 9.679289,-4.67336 29.91063,-11.10636 44.78423,-14.240127 9.668,-2.036989 44.38915,-7.59113 47.45516,-7.59113 2.86342,0 6.940749,20.776597 6.868619,34.999997 -0.0894,17.63462 -5.773359,31.85089 -16.759399,41.91761 -3.63647,3.33217 -8.69006,7.20595 -11.23019,8.6084 l -4.61842,2.54992 6,-5.43081 z M 188.84311,165.8425 c -26.09241,-3.80436 -58.25157,-24.88118 -73.19176,-47.96923 -5.36303,-8.28784 -11.34888,-21.255865 -11.36755,-24.627184 -0.0142,-2.555301 0.75835,-2.747847 17.47177,-4.354858 19.01235,-1.828053 45.4982,0.654276 60.41746,5.662495 16.95722,5.692337 26.15768,12.673517 33.99801,25.797197 5.1724,8.65793 10.87182,26.70268 13.84993,43.84985 l 0.47762,2.75 -17.8635,-0.12194 c -9.82493,-0.0671 -20.53132,-0.51092 -23.79198,-0.98633 z M 33.271591,89.956323 C 5.75219,87.534954 -4.910331,81.404378 -32.176532,52.325948 -47.442961,36.044847 -57.06414,26.849798 -69.087419,17.049877 c -5.514452,-4.494714 -7.449268,-6.617523 -6.497045,-7.12832 2.304604,-1.23625 22.828517,-5.8402748 33.356055,-7.4825937 5.5,-0.858012 12.437552,-1.9938597 15.416781,-2.5241061 14.356064,-2.5551067 47.839922,0.1059223 64.547979,5.1297566 21.6581,6.5122322 36.16663,21.4427292 48.29753,49.7022272 5.66213,13.190197 10.73462,30.107023 9.42133,31.420308 -2.60631,2.606318 -45.74894,5.235224 -62.18362,3.789174 z M 103.4816,83.703816 c -1.46283,-1.762601 -4.899469,-14.457106 -6.730519,-24.861709 -3.08667,-17.539364 -1.31998,-30.741494 5.058599,-37.80182 8.0308,-8.889127 26.92956,-15.2402733 55.16185,-18.537771 6.33097,-0.7394499 6.0788,-1.1112265 9.80017,14.448257 3.80476,15.90816 3.9974,28.547292 0.53832,35.318717 -6.78204,13.276347 -26.8449,26.156798 -47.02191,30.188285 -12.01043,2.399753 -15.62652,2.667852 -16.80651,1.246041 z"
         id="path3539"
         inkscape:connector-curvature="0" />
      <path
         style="fill:#19ca1e"
         d="m 197.27159,165.88755 c -6.56223,-0.42859 -14.68296,-1.6706 -18.91306,-2.89262 -8.45761,-2.44331 -22.19253,-9.08717 -32.52861,-15.73477 -9.43071,-6.06532 -24.95968,-21.90017 -30.96423,-31.57416 -5.36396,-8.64192 -11.18048,-22.580475 -9.91389,-23.757407 1.10189,-1.023902 24.21301,-2.979835 35.08868,-2.969615 26.98798,0.02536 53.51816,7.63247 65.40906,18.755012 8.73298,8.16868 15.46198,21.06254 19.71067,37.76887 2.99539,11.77823 3.74621,19.45244 2.01066,20.55132 -1.59251,1.00831 -13.07801,0.95198 -29.89928,-0.14663 z M 96.538091,116.42017 c -2.32842,-0.73308 -5.24105,-2.03859 -6.4725,-2.90114 -1.23146,-0.86254 -3.48243,-1.56826 -5.00216,-1.56826 -3.67429,0 -11.79184,-2.20799 -11.79184,-3.2074 0,-0.43593 0.4133,-0.7926 0.91844,-0.7926 0.50514,0 1.88573,-1.5651 3.06797,-3.47801 1.18224,-1.91291 3.35644,-4.14864 4.83156,-4.968297 7.28312,-4.046927 13.25088,-6.629172 14.10316,-6.102433 1.44536,0.893279 3.898939,10.24919 4.667709,17.79874 0.37804,3.7125 0.51271,6.70551 0.29925,6.65113 -0.21345,-0.0544 -2.293159,-0.69866 -4.621589,-1.43173 z M 22.095232,87.964398 c -5.871997,-0.989771 -13.071997,-2.901785 -16,-4.248922 C -3.334314,79.377063 -14.811391,69.616015 -34.176212,49.465337 -44.590504,38.628415 -57.97514,25.704875 -63.919848,20.746358 c -5.944709,-4.958517 -10.808561,-9.385683 -10.808561,-9.838147 0,-1.015865 0.742472,-1.231741 15,-4.3612966 14.335026,-3.1465669 29.306689,-5.5868389 34.309017,-5.5921201 2.149339,-0.002269 3.553266,-0.4178347 3.222061,-0.9537367 -0.916648,-1.4831678 27.551372,-0.5923527 39.146655,1.2249685 27.180427,4.2599707 38.832657,9.7859229 51.203127,24.2825759 9.34631,10.952705 18.63415,29.800452 24.23228,49.174402 2.18862,7.574365 2.725,10.749768 1.90177,11.258556 -0.63065,0.389764 -7.5295,1.453574 -15.33078,2.364024 -18.59159,2.169735 -42.82672,2.024314 -56.860489,-0.341186 z M 103.23462,81.35354 C 98.771431,69.614445 94.716741,46.46727 95.719351,38.450773 97.872321,21.236482 106.05161,13.89958 129.76622,7.9103764 c 12.51749,-3.1613316 31.2218,-5.6431759 32.54644,-4.318534 1.63614,1.6361387 6.0382,21.8387046 6.63786,30.4634006 0.78309,11.262945 0.0626,14.557099 -4.7647,21.786113 -8.986,13.456644 -32.30103,25.556551 -53.4119,27.719424 -6.41786,0.657529 -6.45415,0.646903 -7.5393,-2.20724 z"
         id="path3537"
         inkscape:connector-curvature="0" />
      <path
         style="fill:#05ae0d"
         d="m 198.77159,164.94357 c -14.84908,-0.85422 -25.6085,-3.6839 -38.00423,-9.99496 -18.32952,-9.33212 -31.7282,-20.20304 -42.00861,-34.08338 -6.0223,-8.13114 -13.65838,-23.6114 -13.27633,-26.914457 0.2783,-2.406021 0.64629,-2.529954 9.78917,-3.296836 5.225,-0.438259 18.05,-0.621534 28.5,-0.407276 21.25805,0.435855 33.34785,2.592579 43.5,7.760052 6.4441,3.280067 30,25.561407 30,28.376767 0,1.28988 -0.36027,1.5383 -1.25,0.86193 -0.6875,-0.52264 -3.5,-1.76035 -6.25,-2.75047 -2.75,-0.99011 -7.8439,-3.0926 -11.31977,-4.67219 -3.47587,-1.57959 -6.63257,-2.87198 -7.01489,-2.87198 -0.38231,0 -3.38842,-1.3012 -6.68023,-2.89156 -13.53694,-6.54004 -20.03253,-9.35235 -28.29043,-12.24851 -11.99112,-4.20546 -15.48602,-4.843966 -17.09369,-3.122957 -0.71651,0.76703 -1.14485,1.532187 -0.95187,1.700337 0.19298,0.16816 6.42588,3.80554 13.85088,8.08307 26.20233,15.09513 39.77435,25.16527 57.75,42.84922 7.2875,7.16925 13.25,13.39396 13.25,13.8327 0,0.88294 -6.47196,0.8276 -24.5,-0.2095 z M 80.771591,102.95077 c -0.33992,-0.55 -0.14148,-1 0.44098,-1 0.58246,0 1.05902,0.45 1.05902,1 0,0.55 -0.19844,1 -0.44098,1 -0.24254,0 -0.7191,-0.45 -1.05902,-1 z m 8.16667,0.33333 c -0.36667,-0.36666 -0.66667,-1.9528 -0.66667,-3.524747 0,-2.166734 0.63668,-3.100147 2.63208,-3.858797 3.81145,-1.449109 6.69439,-0.292347 5.973,2.396617 -0.31778,1.18448 -0.58392,2.941097 -0.59143,3.903597 -0.008,0.9625 -0.46365,1.75 -1.01365,1.75 -0.55,0 -1,-1.35 -1,-3 0,-1.999997 -0.5,-2.999997 -1.5,-2.999997 -1,0 -1.5,1 -1.5,2.999997 0,2.86715 -0.89976,3.76691 -2.33333,2.33333 z M 22.247495,87.988697 C 2.021464,84.576818 -7.883451,77.182619 -41.432034,40.450773 c -5.023357,-5.5 -13.414751,-13.817801 -18.647541,-18.484002 -5.23279,-4.666201 -9.358367,-8.639799 -9.167949,-8.830217 0.533975,-0.533975 20.90032,3.643218 31.519115,6.464657 27.931203,7.421387 50.901892,16.173062 83.37863,31.766684 7.63325,3.665085 14.26634,6.533085 14.74019,6.373334 1.1826,-0.398687 -5.5582,-13.342404 -8.37229,-16.076499 -1.2533,-1.217676 -3.62022,-4.238957 -5.25982,-6.713957 -1.6396,-2.475 -3.20735,-4.725 -3.4839,-5 -1.61591,-1.606877 -7.00281,-10.002044 -7.00281,-10.913478 0,-0.597587 -0.84992,-1.086522 -1.88871,-1.086522 -1.37211,0 -2.071,-0.971689 -2.55517,-3.552557 -0.36656,-1.953906 -1.31664,-3.802051 -2.11129,-4.106988 -0.79466,-0.304938 -1.44483,-1.158927 -1.44483,-1.897754 0,-0.7388263 -0.7875,-1.8019974 -1.75,-2.3626022 -2.81653,-1.6404787 2.88112,-1.3580476 10.10566,0.5009344 14.31011,3.6822088 26.60572,12.4995818 36.22165,25.9751098 5.44472,7.630083 14.50918,26.259334 17.41506,35.791355 1.19926,3.933876 2.84757,9.356793 3.66291,12.050927 1.08574,3.587608 1.17879,5.086093 0.34771,5.599724 -0.62409,0.385715 -7.51758,1.446212 -15.31886,2.356662 -18.50286,2.15938 -42.83464,2.023414 -56.708226,-0.316887 z M 103.8804,82.836738 C 98.385061,65.237533 95.921341,51.024586 96.474391,40.112176 97.165891,26.467721 101.26932,20.1839 112.99963,14.80606 c 7.24008,-3.319261 8.81159,-3.499146 9.65597,-1.105287 0.3395,0.9625 0.87949,2.3125 1.19997,3 0.36661,0.786461 -0.18988,1.25 -1.50065,1.25 -1.39993,0 -2.08333,0.640627 -2.08333,1.952947 0,1.074121 -0.41826,2.986621 -0.92946,4.25 -2.21287,5.468825 -7.0539,22.6788 -7.5528,26.850397 -0.2995,2.504339 -0.97548,6.055906 -1.50217,7.892372 -1.66048,5.789747 0.0199,5.387366 4.74655,-1.136578 18.34748,-25.324273 28.93648,-37.46037 40.8625,-46.83266 l 6.21584,-4.8848383 3.07977,12.7341233 c 3.99879,16.534061 4.2018,27.026506 0.65821,34.019452 -3.37734,6.664855 -13.6748,15.941536 -23.19183,20.892836 -13.46097,7.003169 -37.66462,12.712953 -38.7778,9.147914 z"
         id="path3535"
         inkscape:connector-curvature="0" />
      <path
         style="fill:#02900d"
         d="m 135.62067,138.54011 c -6.03216,-4.54871 -12.34858,-11.3732 -18.5972,-20.09308 -5.07348,-7.07998 -11.87537,-21.522726 -11.53666,-24.496257 0.27413,-2.40647 0.64019,-2.529811 9.78478,-3.296836 5.225,-0.438259 18.05,-0.621534 28.5,-0.407276 27.28432,0.559412 43.36582,4.676374 47.1956,12.082359 l 1.49953,2.89976 -14.84757,-0.50888 c -12.91535,-0.44267 -15.82358,-0.86501 -22.34756,-3.24538 -10.50528,-3.833011 -14.3003,-4.4982 -15.89901,-2.786777 -0.71651,0.76703 -1.14485,1.521307 -0.95187,1.676177 0.19298,0.15486 5.19053,3.13776 11.10566,6.62866 10.33227,6.09773 22.78371,15.28347 22.70979,16.75359 -0.0347,0.69075 -29.17788,19.2046 -30.23048,19.2046 -0.29476,0 -3.16801,-1.9848 -6.38501,-4.41066 z M 22.247495,87.988697 C 11.09234,86.106962 4.524763,83.406907 -4.228409,77.103953 c -5.678435,-4.088908 -16.5,-14.070545 -16.5,-15.219334 0,-0.418943 3.0375,-2.453307 6.75,-4.520809 3.7125,-2.067502 8.937995,-5.256232 11.612212,-7.086066 2.674217,-1.829834 5.697594,-3.326971 6.718615,-3.326971 1.10368,0 1.655958,-0.522354 1.362054,-1.288254 -0.271892,-0.70854 0.867231,-2.592731 2.531385,-4.187091 3.204866,-3.070457 4.331307,-1.624778 1.323594,1.698707 -1.643707,1.816276 -1.600859,1.842336 1.24817,0.759137 1.622671,-0.616938 3.740462,-1.836783 4.706202,-2.710766 1.489221,-1.347726 2.172926,-1.394708 4.50183,-0.30935 1.510266,0.703841 7.695938,3.29366 13.745938,5.755153 6.05,2.461493 14.27237,6.007022 18.27193,7.878953 3.99957,1.871931 7.69608,3.403511 8.21447,3.403511 0.51839,0 0.0503,-2.081486 -1.04021,-4.625524 -1.47744,-3.446735 -1.70129,-4.964639 -0.87837,-5.956196 0.6074,-0.731868 0.8236,-1.784949 0.48045,-2.340179 -0.34315,-0.555229 0.38407,-2.937441 1.61605,-5.293805 1.23198,-2.356363 2.13828,-4.653954 2.014,-5.105758 -0.30929,-1.124385 4.004,-8.678538 4.9553,-8.678538 3.18349,0 18.72783,28.797013 22.85875,42.347498 1.19926,3.933876 2.84757,9.356793 3.66291,12.050927 1.08574,3.587608 1.17879,5.086093 0.34771,5.599724 -0.62409,0.385715 -7.51758,1.446212 -15.31886,2.356662 -18.50286,2.15938 -42.83464,2.023414 -56.708226,-0.316887 z M 103.8804,82.836738 C 98.385061,65.237533 95.921341,51.024586 96.474391,40.112176 c 0.47569,-9.386118 2.84816,-15.682833 7.006319,-18.595321 3.0587,-2.142401 3.79088,-1.974595 3.79088,0.868818 0,1.339196 0.46167,3.649181 1.02593,5.133302 0.56426,1.484121 1.24167,4.415449 1.50535,6.514062 0.26368,2.098613 0.86643,4.851127 1.33946,6.116698 1.07692,2.881269 0.60952,14.181332 -0.7732,18.69341 -1.81766,5.93134 -0.0817,5.388256 5.12459,-1.603189 8.16961,-10.970881 13.76604,-16.330256 16.37008,-15.676683 1.22183,0.306659 3.16342,0.05347 4.31465,-0.562653 2.54972,-1.364568 2.70991,-0.02555 0.34314,2.868355 -1.71839,2.101116 -1.59645,2.302085 6.75,11.1251 4.675,4.941932 9.06023,8.978888 9.74495,8.971014 0.68473,-0.0079 3.54281,-2.264316 6.3513,-5.014316 5.49886,-5.384337 6.52938,-6.037519 4.99136,-3.163696 -2.19901,4.108891 -14.16871,13.983019 -21.701,17.901747 -13.46097,7.003169 -37.66462,12.712953 -38.7778,9.147914 z"
         id="path3533"
         inkscape:connector-curvature="0" />
      <path
         style="fill:#017610"
         d="m 116.81723,117.26384 c -4.40478,-5.94628 -10.32457,-17.672637 -11.19097,-22.16789 l -0.6466,-3.354823 5.39597,0.541113 c 2.96778,0.297612 7.29211,1.236934 9.60962,2.087382 2.31752,0.850448 4.9375,1.268507 5.82219,0.929021 0.90469,-0.347161 2.84925,0.300063 4.44404,1.479143 2.34848,1.736307 2.93187,1.845327 3.39643,0.634689 0.3085,-0.803936 1.23878,-1.461702 2.0673,-1.461702 1.12809,0 1.36106,0.726604 0.9277,2.89341 -0.48291,2.414537 -0.065,3.273167 2.525,5.188057 1.70702,1.26205 3.09058,2.77252 3.07457,3.35659 -0.016,0.58407 -3.50351,3.20629 -7.75,5.82715 -4.24649,2.62087 -9.15842,5.68675 -10.9154,6.81307 l -3.19452,2.04786 -3.56533,-4.81307 z M 22.642781,87.96121 C 17.071933,86.960448 11.221933,85.441713 9.64278,84.586245 l -2.871189,-1.555397 3.634421,-0.04004 c 2.520755,-0.02777 7.68874,-2.184992 16.865579,-7.040038 7.27714,-3.85 13.61801,-7 14.09083,-7 0.47282,0 0.40822,-1.18741 -0.14356,-2.638688 -1.27929,-3.364796 -0.99391,-3.582646 2.81157,-2.146238 2.70037,1.019275 3.79877,0.865628 8.05154,-1.126263 l 4.9246,-2.306555 10.88251,5.58293 c 5.98538,3.070612 14.03251,7.992098 17.88251,10.936636 3.85,2.944537 7.44384,5.318711 7.9863,5.275941 0.54247,-0.04277 1.13487,0.693659 1.31645,1.636509 0.40272,2.091146 -0.47171,2.311578 -16.96591,4.276891 -17.29077,2.060226 -42.53934,1.841394 -55.46565,-0.480726 z m 81.477329,-4.475885 c -0.89515,-0.921758 2.42764,-10.077241 4.48065,-12.345785 0.91896,-1.015437 1.67752,-2.260815 1.68571,-2.767508 0.008,-0.506692 1.50559,-2.683272 3.32757,-4.836843 3.40315,-4.022503 5.65755,-4.208009 5.65755,-0.465538 0,1.100464 2.35395,4.489797 5.231,7.531853 4.91322,5.195007 5.4546,5.495254 8.91174,4.942435 2.0244,-0.323716 5.74545,-1.473615 8.269,-2.555333 6.51049,-2.790721 5.68698,-1.621253 -1.36515,1.938651 -10.43475,5.267445 -33.9863,10.83558 -36.19807,8.558068 z M 89.709931,70.428479 c -0.9499,-2.487262 -1.44971,-4.799672 -1.11069,-5.138689 0.64461,-0.644613 1.91349,2.235281 3.04498,6.910983 1.01964,4.213528 -0.008,3.272129 -1.93429,-1.772294 z"
         id="path3531"
         inkscape:connector-curvature="0" />
    </g>
  </g>
</svg>
